<mxfile host="65bd71144e">
    <diagram id="oSqxmyYjwkYyh-bRWkCP" name="ThanosPrometheus">
        <mxGraphModel dx="2002" dy="1009" grid="0" gridSize="10" guides="1" tooltips="1" connect="1" arrows="1" fold="1" page="0" pageScale="1" pageWidth="827" pageHeight="1169" math="0" shadow="0">
            <root>
                <mxCell id="0"/>
                <mxCell id="1" parent="0"/>
                <mxCell id="2" value="" style="whiteSpace=wrap;html=1;dashed=1;" vertex="1" parent="1">
                    <mxGeometry x="-483" y="-329" width="941" height="956" as="geometry"/>
                </mxCell>
                <mxCell id="3" value="" style="aspect=fixed;html=1;points=[];align=center;image;fontSize=12;image=img/lib/azure2/containers/Kubernetes_Services.svg;dashed=1;" vertex="1" parent="1">
                    <mxGeometry x="431" y="-348" width="68" height="60" as="geometry"/>
                </mxCell>
                <mxCell id="5" value="" style="shape=image;imageAspect=0;aspect=fixed;verticalLabelPosition=bottom;verticalAlign=top;dashed=1;image=data:image/png,iVBORw0KGgoAAAANSUhEUgAABd0AAAXdCAYAAAAcq/T/AAAACXBIWXMAAC4jAAAuIwF4pT92AAAgAElEQVR4nOzcwW1jVRiG4R/kPpIOhg7G3EYmFVxBBTEdjFwBNGJSQuiAEjIVBAmN2LCJMi/G9n0eyZvszncWsV5Z57vX19cBAAAAAAC+3fc2BAAAAACAhugOAAAAAAAR0R0AAAAAACKiOwAAAAAARER3AAAAAACIiO4AAAAAABAR3QEAAAAAICK6AwAAAABARHQHAAAAAICI6A4AAAAAABHRHQAAAAAAIqI7AAAAAABERHcAAAAAAIiI7gAAAAAAEBHdAQAAAAAgIroDAAAAAEBEdAcAAAAAgIjoDgAAAAAAEdEdAAAAAAAiojsAAAAAAEREdwAAAAAAiIjuAAAAAAAQEd0BAAAAACAiugMAAAAAQER0BwAAAACAiOgOAAAAAAAR0R0AAAAAACKiOwAAAAAARER3AAAAAACIiO4AAAAAABAR3QEAAAAAICK6AwAAAABARHQHAAAAAICI6A4AAAAAABHRHQAAAAAAIqI7AAAAAABERHcAAAAAAIjsLnnIdZn9zN8fAAAAAAD4x/E0h0tc46Kj+9fg/vivvwIAAAAAsHUXGd09LwMAAAAAABHRHQAAAAAAIqI7AAAAAABERHcAAAAAAIiI7gAAAAAAEBHdAQAAAAAgIroDAAAAAEBEdAcAAAAAgIjoDgAAAAAAEdEdAAAAAAAiojsAAAAAAEREdwAAAAAAiIjuAAAAAAAQEd0BAAAAACAiugMAAAAAQER0BwAAAACAiOgOAAAAAAAR0R0AAAAAACKiOwAAAAAARER3AAAAAACIiO4AAAAAABAR3QEAAAAAICK6AwAAAABARHQHAAAAAICI6A4AAAAAABHRHQAAAAAAIqI7AAAAAABERHcAAAAAAIiI7gAAAAAAEBHdAQAAAAAgIroDAAAAAEBEdAcAAAAAgIjoDgAAAAAAEdEdAAAAAAAiojsAAAAAAEREdwAAAAAAiIjuAAAAAAAQEd0BAAAAACAiugMAAAAAQER0BwAAAACAiOgOAAAAAAAR0R0AAAAAACKiOwAAAAAARER3AAAAAACIiO4AAAAAABAR3QEAAAAAICK6AwAAAABARHQHAAAAAICI6A4AAAAAABHRHQAAAAAAIqI7AAAAAABERHcAAAAAAIiI7gAAAAAAEBHdAQAAAAAgIroDAAAAAEBEdAcAAAAAgIjoDgAAAAAAEdEdAAAAAAAiojsAAAAAAEREdwAAAAAAiIjuAAAAAAAQEd0BAAAAACAiugMAAAAAQER0BwAAAACAiOgOAAAAAAAR0R0AAAAAACKiOwAAAAAARER3AAAAAACIiO4AAAAAABAR3QEAAAAAICK6AwAAAABARHQHAAAAAICI6A4AAAAAABHRHQAAAAAAIqI7AAAAAABERHcAAAAAAIiI7gAAAAAAEBHdAQAAAAAgIroDAAAAAEBEdAcAAAAAgIjoDgAAAAAAEdEdAAAAAAAiojsAAAAAAEREdwAAAAAAiIjuAAAAAAAQEd0BAAAAACAiugMAAAAAQER0BwAAAACAiOgOAAAAAAAR0R0AAAAAACKiOwAAAAAARER3AAAAAACIiO4AAAAAABAR3QEAAAAAICK6AwAAAABARHQHAAAAAICI6A4AAAAAABHRHQAAAAAAIqI7AAAAAABERHcAAAAAAIiI7gAAAAAAEBHdAQAAAAAgIroDAAAAAEBEdAcAAAAAgIjoDgAAAAAAEdEdAAAAAAAiojsAAAAAAEREdwAAAAAAiIjuAAAAAAAQEd0BAAAAACAiugMAAAAAQER0BwAAAACAiOgOAAAAAAAR0R0AAAAAACKiOwAAAAAARER3AAAAAACIiO4AAAAAABAR3QEAAAAAICK6AwAAAABARHQHAAAAAICI6A4AAAAAABHRHQAAAAAAIqI7AAAAAABERHcAAAAAAIiI7gAAAAAAEBHdAQAAAAAgIroDAAAAAEBEdAcAAAAAgIjoDgAAAAAAEdEdAAAAAAAiojsAAAAAAEREdwAAAAAAiIjuAAAAAAAQEd0BAAAAACAiugMAAAAAQER0BwAAAACAiOgOAAAAAAAR0R0AAAAAACKiOwAAAAAARER3AAAAAACIiO4AAAAAABAR3QEAAAAAICK6AwAAAABARHQHAAAAAICI6A4AAAAAABHRHQAAAAAAIqI7AAAAAABERHcAAAAAAIiI7gAAAAAAEBHdAQAAAAAgIroDAAAAAEBEdAcAAAAAgIjoDgAAAAAAEdEdAAAAAAAiojsAAAAAAEREdwAAAAAAiIjuAAAAAAAQEd0BAAAAACAiugMAAAAAQER0BwAAAACAiOgOAAAAAAAR0R0AAAAAACKiOwAAAAAARER3AAAAAACIiO4AAAAAABAR3QEAAAAAICK6AwAAAABARHQHAAAAAICI6A4AAAAAABHRHQAAAAAAIqI7AAAAAABERHcAAAAAAIiI7gAAAAAAEBHdAQAAAAAgIroDAAAAAEBEdAcAAAAAgIjoDgAAAAAAEdEdAAAAAAAiojsAAAAAAEREdwAAAAAAiOwMCWf34/E0T2YHAAAAzmVd5jAzjwaH/55fugMAAAAAQER0BwAAAACAiOgOAAAAAAAR0R0AAAAAACKiOwAAAAAARER3AAAAAACIiO4AAAAAABAR3QEAAAAAICK6AwAAAABARHQHAAAAAICI6A4AAAAAABHRHQAAAAAAIqI7AAAAAABERHcAAAAAAIiI7gAAAAAAEBHdAQAAAAAgIroDAAAAAEBEdAcAAAAAgIjoDgAAAAAAEdEdAAAAAAAiojsAAAAAAEREdwAAAAAAiIjuAAAAAAAQEd0BAAAAACAiugMAAAAAQER0BwAAAACAiOgOAAAAAAAR0R0AAAAAACKiOwAAAAAARER3AAAAAACIiO4AAAAAABAR3QEAAAAAICK6AwAAAABARHQHAAAAAICI6A4AAAAAABHRHQAAAAAAIqI7AAAAAABERHcAAAAAAIiI7gAAAAAAEBHdAQAAAAAgIroDAAAAAEBEdAcAAAAAgIjoDgAAAAAAEdEdAAAAAAAiojsAAAAAAEREdwAAAAAAiIjuAAAAAAAQEd0BAAAAACAiugMAAAAAQER0BwAAAACAiOgOAAAAAAAR0R0AAAAAACKiOwAAAAAARER3AAAAAACIiO4AAAAAABAR3QEAAAAAICK6AwAAAABARHQHAAAAAICI6A4AAAAAABHRHQAAAAAAIqI7AAAAAABERHcAAAAAAIiI7gAAAAAAEBHdAQAAAAAgIroDAAAAAEBEdAcAAAAAgIjoDgAAAAAAEdEdAAAAAAAiojsAAAAAAEREdwAAAAAAiIjuAAAAAAAQEd0BAAAAACAiugMAAAAAQER0BwAAAACAiOgOAAAAAAAR0R0AAAAAACKiOwAAAAAARER3AAAAAACIiO4AAAAAABAR3QEAAAAAICK6AwAAAABARHQHAAAAAICI6A4AAAAAABHRHQAAAAAAIqI7AAAAAABERHcAAAAAAIiI7gAAAAAAEBHdAQAAAAAgIroDAAAAAEBEdAcAAAAAgIjoDgAAAAAAEdEdAAAAAAAiojsAAAAAAEREdwAAAAAAiIjuAAAAAAAQEd0BAAAAACAiugMAAAAAQER0BwAAAACAiOgOAAAAAAAR0R0AAAAAACKiOwAAAAAARER3AAAAAACIiO4AAAAAABAR3QEAAAAAICK6AwAAAABARHQHAAAAAICI6A4AAAAAABHRHQAAAAAAIqI7AAAAAABERHcAAAAAAIiI7gAAAAAAEBHdAQAAAAAgIroDAAAAAEBEdAcAAAAAgIjoDgAAAAAAEdEdAAAAAAAiojsAAAAAAEREdwAAAAAAiIjuAAAAAAAQEd0BAAAAACAiugMAAAAAQER0BwAAAACAiOgOAAAAAAAR0R0AAAAAACKiOwAAAAAARER3AAAAAACIiO4AAAAAABAR3QEAAAAAICK6AwAAAABARHQHAAAAAICI6A4AAAAAABHRHQAAAAAAIqI7AAAAAABERHcAAAAAAIiI7gAAAAAAEBHdAQAAAAAgIroDAAAAAEBEdAcAAAAAgIjoDgAAAAAAEdEdAAAAAAAiojsAAAAAAEREdwAAAAAAiIjuAAAAAAAQEd0BAAAAACAiugMAAAAAQER0BwAAAACAiOgOAAAAAAAR0R0AAAAAACKiOwAAAAAARER3AAAAAACIiO4AAAAAABAR3QEAAAAAICK6AwAAAABARHQHAAAAAICI6A4AAAAAABHRHQAAAAAAIqI7AAAAAABERHcAAAAAAIiI7gAAAAAAEBHdAQAAAAAgIroDAAAAAEBEdAcAAAAAgIjoDgAAAAAAEdEdAAAAAAAiojsAAAAAAEREdwAAAAAAiIjuAAAAAAAQEd0BAAAAACAiugMAAAAAQER0BwAAAACAiOgOAAAAAAAR0R0AAAAAACKiOwAAAAAARER3AAAAAACIiO4AAAAAABAR3QEAAAAAICK6AwAAAABARHQHAAAAAICI6A4AAAAAABHRHQAAAAAAIqI7AAAAAABERHcAAAAAAIiI7gAAAAAAEBHdAQAAAAAgIroDAAAAAEBEdAcAAAAAgIjoDgAAAAAAEdEdAAAAAAAiojsAAAAAAEREdwAAAAAAiIjuAAAAAAAQEd0BAAAAACAiugMAAAAAQER0BwAAAACAiOgOAAAAAAAR0R0AAAAAACKiOwAAAAAARER3AAAAAACIiO4AAAAAABAR3QEAAAAAICK6AwAAAABARHQHAAAAAICI6A4AAAAAABHRHQAAAAAAIqI7AAAAAABERHcAAAAAAIiI7gAAAAAAEBHdAQAAAAAgIroDAAAAAEBEdAcAAAAAgIjoDgAAAAAAkZ0h4ex+XxejA3Bxfjme5uBa4NutyzzNzEdTAgBsk1+6AwAAAABARHQHAAAAAICI6A4AAAAAABHRHQAAAAAAIqI7AAAAAABERHcAAAAAAIiI7gAAAAAAEBHdAQAAAAAgIroDAAAAAEBEdAcAAAAAgIjoDgAAAAAAEdEdAAAAAAAiojsAAAAAAEREdwAAAAAAiIjuAAAAAAAQEd0BAAAAACAiugMAAAAAQER0BwAAAACAiOgOAAAAAAAR0R0AAAAAACKiOwAAAAAARER3AAAAAACIiO4AAAAAABAR3QEAAAAAICK6AwAAAABARHQHAAAAAICI6A4AAAAAABHRHQAAAAAAIqI7AAAAAABERHcAAAAAAIiI7gAAAAAAEBHdAQAAAAAgIroDAAAAAEBEdAcAAAAAgIjoDgAAAAAAEdEdAAAAAAAiojsAAAAAAEREdwAAAAAAiIjuAAAAAAAQEd0BAAAAACAiugMAAAAAQER0BwAAAACAiOgOAAAAAAAR0R0AAAAAACKiOwAAAAAARER3AAAAAACIiO4AAAAAABAR3QEAAAAAILIzJPAOX2bm2XBX7X5m7rY+AgAAnMkfM/Ni7Kv2cesDAG8nugPv8Xw8zd5y12td5jAzj1vfAQAAzuSn42mejH291mVet74B8HaelwEAAAAAgIjoDgAAAAAAEdEdAAAAAAAiojsAAAAAAEREdwAAAAAAiIjuAAAAAAAQEd0BAAAAACAiugMAAAAAQER0BwAAAACAiOgOAAAAAAAR0R0AAAAAACKiOwAAAAAARHaGBICr9PPMPLu63OeZ+XBjZwI4p99m5leL5x5m5tONnQkAbpboDgDX6fl4mid311qXebml8wD8D/70/6m3LrO/tTMBwC3zvAwAAAAAAEREdwAAAAAAiIjuAAAAAAAQEd0BAAAAACAiugMAAAAAQER0BwAAAACAiOgOAAAAAAAR0R0AAAAAACKiOwAAAAAARER3AAAAAACIiO4AAAAAABAR3QEAAAAAICK6AwAAAABARHQHAAAAAICI6A4AAAAAABHRHQAAAAAAIqI7AAAAAABERHcAAAAAAIiI7gAAAAAAEBHdAQAAAAAgIroDAAAAAEBEdAcAAAAAgIjoDgAAAAAAEdEdAAAAAAAiojsAAAAAAEREdwAAAAAAiIjuAAAAAAAQEd0BAAAAACAiugMAAAAAQER0BwAAAACAiOgOAAAAAAAR0R0AAAAAACKiOwAAAAAARER3AAAAAACIiO4AAAAAABAR3QEAAAAAICK6AwAAAABARHQHAAAAAICI6A4AAAAAABHRHQAAAAAAIqI7AAAAAABERHcAAAAAAIiI7gAAAAAAEBHdAQAAAAAgIroDAAAAAEBEdAcAAAAAgIjoDgAAAAAAEdEdAAAAAAAiojsAAAAAAEREdwAAAAAAiIjuAAAAAAAQEd0BAAAAACAiugMAAAAAQER0BwAAAACAiOgOAAAAAAAR0R0AAAAAACKiOwAAAAAARER3AAAAAACIiO4AAAAAABAR3QEAAAAAICK6AwAAAABARHQHAAAAAICI6A4AAAAAABHRHQAAAAAAIqI7AAAAAABERHcAAAAAAIiI7gAAAAAAEBHdAQAAAAAgIroDAAAAAEBEdAcAAAAAgIjoDgAAAAAAEdEdAAAAAAAiojsAAAAAAEREdwAAAAAAiIjuAAAAAAAQEd0BAAAAACAiugMAAAAAQER0BwAAAACAiOgOAAAAAAAR0R0AAAAAACKiOwAAAAAARER3AAAAAACIiO4AAAAAABAR3QEAAAAAILIzJABcpc/rMi+uLvfDjZ0H4Nwe1mX2Vs/d39h5AOCmie4AcJ0+uDcALtDd1w8AwGZ5XgYAAAAAACKiOwAAAAAARER3AAAAAACIiO4AAAAAABAR3QEAAAAAICK6AwAAAABARHQHAAAAAICI6A4AAAAAABHRHQAAAAAAIqI7AAAAAABERHcAAAAAAIjsDAm8w/26zMFwV22/9QEAAOCMHtbFd3CArRDdgfe4m5lHywEAALzJJzMBbIfnZQAAAAAAICK6AwAAAABARHQHAAAAAICI6A4AAAAAABHRHQAAAAAAIqI7AAAAAABERHcAAAAAAIiI7gAAAAAAEBHdAQAAAAAgIroDAAAAAEBEdAcAAAAAgIjoDgAAAAAAEdEdAAAAAAAiojsAAAAAAEREdwAAAAAAiIjuAAAAAAAQEd0BAAAAACAiugMAAAAAQER0BwAAAACAiOgOAAAAAAAR0R0AAAAAACKiOwAAAAAARER3AAAAAACIiO4AAAAAABAR3QEAAAAAICK6AwAAAABARHQHAAAAAICI6A4AAAAAABHRHQAAAAAAIqI7AAAAAABERHcAAAAAAIiI7gAAAAAAEBHdAQAAAAAgIroDAAAAAEBEdAcAAAAAgIjoDgAAAAAAEdEdAAAAAAAiojsAAAAAAEREdwAAAAAAiIjuAAAAAAAQEd0BAAAAACAiugMAAAAAQER0BwAAAACAiOgOAAAAAAAR0R0AAAAAACKiOwAAAAAARER3AAAAAACIiO4AAAAAABAR3QEAAAAAICK6AwAAAABARHQHAAAAAICI6A4AAAAAABHRHQAAAAAAIqI7AAAAAABERHcAAAAAAIiI7gAAAAAAEBHdAQAAAAAgIroDAAAAAEBEdAcAAAAAgIjoDgAAAAAAEdEdAAAAAAAiojsAAAAAAEREdwAAAAAAiIjuAAAAAAAQEd0BAAAAACAiugMAAAAAQER0BwAAAACAiOgOAAAAAAAR0R0AAAAAACKiOwAAAAAARER3AAAAAACIiO4AAAAAABAR3QEAAAAAICK6AwAAAABARHQHAAAAAICI6A4AAAAAABHRHQAAAAAAIqI7AAAAAABERHcAAAAAAIiI7gAA8Bd7d3vcRnatYXTfKgagDKwMpAyGgwgmg6ETQMkRXCqCS3cEVAZiAi0yAzADMgMwAt+CLNuyCH6/AM7pXqtKf0D9QO8jlWaeOrUbAAAgRHQHAAAAAIAQ0R0AAAAAAEJEdwAAAAAACBHdAQAAAAAgRHQHAAAAAIAQ0R0AAAAAAEJEdwAAAAAACBHdAQAAAAAgRHQHAAAAAIAQ0R0AAAAAAEJEdwAAAAAACBHdAQAAAAAgRHQHAAAAAIAQ0R0AAAAAAEJEdwAAAAAACBHdAQAAAAAgRHQHAAAAAIAQ0R0AAAAAAEKODBIAAIAtfh/Gurz/Mb1YLuofDgsA9s9NdwAAAAAACBHdAQAAAAAgRHQHAAAAAIAQ0R0AAAAAAEJEdwAAAAAACBHdAQAAAAAgRHQHAAAAAIAQ0R0AAAAAAEJEdwAAAAAACBHdAQAAAAAgRHQHAAAAAIAQ0R0AAAAAAEKODBLYo98NeyfOqurDBJ8LAADm7EtVnfsTEHdSVX9O7JmAxojuwN4MY12adt5yUeupPRMAAFA3/h8qb7mo46k9E9Ae62UAAAAAACBEdAcAAAAAgBDRHQAAAAAAQkR3AAAAAAAIEd0BAAAAACBEdAcAAAAAgBDRHQAAAAAAQkR3AAAAAAAIEd0BAAAAACBEdAcAAAAAgBDRHQAAAAAAQkR3AAAAAAAIEd0BAAAAACBEdAcAAAAAgJAjgwSAWbqrqtXEHvxdVX249ykAAADskegOAPO0GsY6ntKTLxffn+fbvR8AAADAHlkvAwAAAAAAIaI7AAAAAACEiO4AAAAAABAiugMAAAAAQIjoDgAAAAAAIaI7AAAAAACEiO4AAAAAABAiugMAAAAAQIjoDgAAAAAAIaI7AAAAAACEiO4AAAAAABAiugMAAAAAQIjoDgAAAAAAIaI7AAAAAACEiO4AAAAAABAiugMAAAAAQIjoDgAAAAAAIaI7AAAAAACEiO4AAAAAABAiugMAAAAAQIjoDgAAAAAAIaI7AAAAAACEiO4AAAAAABAiugMAAAAAQIjoDgAAAAAAIaI7AAAAAACEiO4AAAAAABAiugMAAAAAQIjoDgAAAAAAIaI7AAAAAACEiO4AAAAAABAiugMAAAAAQIjoDgAAAAAAIaI7AAAAAACEiO4AAAAAABAiugMAAAAAQIjoDgAAAAAAIaI7AAAAAACEiO4AAAAAABAiugMAAAAAQIjoDgAAAAAAIaI7AAAAAACEiO4AAAAAABAiugMAAAAAQIjoDgAAAAAAIaI7AAAAAACEiO4AAAAAABAiugMAAAAAQIjoDgAAAAAAIaI7AAAAAACEiO4AAAAAABByZJAAMEvvlos6ntiDf7z3CQAAAOyZ6A4A8/Shqr45ewAAAMiyXgYAAAAAAEJEdwAAAAAACBHdAQAAAAAgRHQHAAAAAIAQ0R0AAAAAAEJEdwAAAAAACBHdAQAAAAAgRHQHAAAAAIAQ0R0AAAAAAEJEdwAAAAAACBHdAQAAAAAgRHQHAAAAAIAQ0R0AAAAAAEJEdwAAAAAACBHdAQAAAAAg5MgggX1ZLurSsHfi4wSfCQAA5u5kuajjuQ9hB95P7omA5ojuwD79ZtoAAADP8pcfvwDojPUyAAAAAAAQIroDAAAAAECI6A4AAAAAACGiOwAAAAAAhIjuAAAAAAAQIroDAAAAAECI6A4AAAAAACGiOwAAAAAAhIjuAAAAAAAQIroDAAAAAECI6A4AAAAAACFHBgkAAMAWJ8tFHd//GACAx4juAAAAbPPnls8AAHiC9TIAAAAAABAiugMAAAAAQIjoDgAAAAAAIaI7AAAAAACEiO4AAAAAABAiugMAAAAAQIjoDgAAAAAAIaI7AAAAAACEiO4AAAAAABAiugMAAAAAQIjoDgAAAAAAIaI7AAAAAACEiO4AAAAAABAiugMAAAAAQIjoDgAAAAAAIaI7AAAAAACEiO4AAAAAABAiugMAAAAAQIjoDgAAAAAAIaI7AAAAAACEiO4AAAAAABAiugMAAAAAQIjoDgAAAAAAIaI7AAAAAACEiO4AAAAAABAiugMAAAAAQIjoDgAAAAAAIaI7AAAAAACEiO4AAAAAABAiugMAAAAAQIjoDgAAAAAAIaI7AAAAAACEiO4AAAAAABAiugMAAAAAQIjoDgAAAAAAIaI7AAAAAACEiO4AAAAAABAiugMAAAAAQIjoDgAAAAAAIaI7AAAAAACEiO4AAAAAABAiugMAAAAAQIjoDgAAAAAAIaI7AAAAAACEiO4AAAAAABAiugMAAAAAQIjoDgAAAAAAIaI7AAAAAACEiO4AAAAAABAiugMAAAAAQIjoDgAAAAAAIaI7AAAAAACEiO4AAAAAABAiugMAAAAAQIjoDgAAAAAAIaI7AAAAAACEiO4AAAAAABAiugMAAAAAQIjoDgAAAAAAIaI7AAAAAACEiO4AAAAAABAiugMAAAAAQIjoDgAAAAAAIaI7AAAAAACEiO4AAAAAABAiugMAAAAAQIjoDgAAAAAAIaI7AAAAAACEiO4AAAAAABAiugMAAAAAQIjoDgAAAAAAIaI7AAAAAACEiO4AAAAAABAiugMAAAAAQIjoDgAAAAAAIaI7AAAAAACEiO4AAAAAABAiugMAAAAAQIjoDgAAAAAAIaI7AAAAAACEiO4AAAAAABAiugMAAAAAQIjoDgAAAAAAIaI7AAAAAACEiO4AAAAAABAiugMAAAAAQIjoDgAAAAAAIaI7AAAAAACEiO4AAAAAABAiugMAAAAAQIjoDgAAAAAAIaI7AAAAAACEiO4AAAAAABAiugMAAAAAQIjoDgAAAAAAIaI7AAAAAACEiO4AAAAAABAiugMAAAAAQIjoDgAAAAAAIaI7AAAAAACEiO4AAAAAABAiugMAAAAAQIjoDgAAAAAAIaI7AAAAAACEiO4AAAAAABAiugMAAAAAQIjoDgAAAAAAIaI7AAAAAACEHBkkAAAAIbdVdWOYce+r6i8TeyYAmCzRHQAAgJTzYaxT08xaLr7P9H+n9EwAMGXWywAAAAAAQIib7gDQp79V1crZxZ1V1YeJPRMAAAB7JLoDQJ9Ww1iXzi5ruaj1lJ4HAACA/bNeBgAAAAAAQkR3AAAAAAAIEd0BAAAAACBEdAcAAAAAgBDRHQAAAAAAQkR3AAAAAAAIEd0BAAAAACBEdAcAAAAAgBDRHQAAAA3UUboAABtHSURBVAAAQkR3AAAAAAAIEd0BAAAAACBEdAcAAAAAgBDRHQAAAAAAQkR3AAAAAAAIEd0BAAAAACDkyCCBjlwNYx1P6cCWi+/P8+3eDwAAAN7u92GsyynNcbn4/jy/3fsBQEPcdAcAAAAAgBDRHQAAAAAAQkR3AAAAAAAIEd0BAAAAACBEdAcAAAAAgBDRHQAAAAAAQkR3AAAAAAAIEd0BAAAAACBEdAcAAAAAgBDRHQAAAAAAQkR3AAAAAAAIEd0BAAAAACBEdAcAAAAAgBDRHQAAAAAAQkR3AAAAAAAIEd0BAAAAACBEdAcAAAAAgBDRHQAAAAAAQkR3AAAAAAAIEd0BAAAAACBEdAcAAAAAgBDRHQAAAAAAQkR3AAAAAAAIEd0BAAAAACBEdAcAAAAAgBDRHQAAAAAAQkR3AAAAAAAIEd0BAAAAACBEdAcAAAAAgBDRHQAAAAAAQkR3AAAAAAAIEd0BAAAAACBEdAcAAAAAgBDRHQAAAAAAQkR3AAAAAAAIEd0BAAAAACBEdAcAAAAAgBDRHQAAAAAAQkR3AAAAAAAIEd0BAAAAACBEdAcAAAAAgBDRHQAAAAAAQkR3AAAAAAAIEd0BAAAAACBEdAcAAAAAgBDRHQAAAAAAQkR3AAAAAAAIEd0BAAAAACBEdAcAAAAAgBDRHQAAAAAAQkR3AAAAAAAIOTJIoCPvlos6ntiBfbz3CQAAQMbH5WJyk3x37xOAxojuQE8+VNU3JwYAAPAs/2dMAPtnvQwAAAAAAISI7gAAAAAAECK6AwAAAABAiOgOAAAAAAAhojsAAAAAAISI7gAAAAAAECK6AwAAAABAiOgOAAAAAAAhojsAAAAAAISI7gAAAAAAECK6AwAAAABAiOgOAAAAAAAhRwYJAABAyPvloo4NM+79xJ4HACZNdAcAACDlzx+/AABmy3oZAAAAAAAIcdMdAPp0tlzU2tnFfZzY8wAAALBnojsA9OmDcwMAAID2WC8DAAAAAAAhojsAAAAAAISI7gAAAAAAECK6AwAAAABAiOgOAAAAAAAhojsAAAAAAISI7gAAAAAAECK6AwAAAABAiOgOAAAAAAAhojsAAAAAAISI7gAAAAAAECK6AwAAAABAiOgOAAAAAAAhojsAAAAAAISI7gAAAAAAECK6AwAAAABAiOgOAAAAAAAhojsAAAAAAISI7gAAAAAAECK6AwAAAABAiOgOAAAAAAAhojsAAAAAAISI7gAAAAAAECK6AwAAAABAiOgOAAAAAAAhojsAAAAAAISI7gAAAAAAECK6AwAAAABAiOgOAAAAAAAhojsAAAAAAISI7gAAAAAAECK6AwAAAABAiOgOAAAAAAAhojsAAAAAAISI7gAAAAAAECK6AwAAAABAiOgOAAAAAAAhojsAAAAAAISI7gAAAAAAECK6AwAAAADQneWi3rX4nUV3AAAAAAAIEd0BAAAAAOjOMNa6xe8sugMAAAAAQIjoDgAAAAAAIaI7AAAAAACEiO4AAAAAABAiugMAAAAAQIjoDgAAAAAAIaI7AAAAAACEiO4AAAAAABAiugMAAAAAQIjoDgAAAAAAIaI7AAAAAACEiO4AAAAAABAiugMAAAAA0JvrVr+v6A4AAAAAQG/WrX5f0R0AAAAAAEJEdwAAAAAACBHdAQAAAAAgRHQHAAAAAIAQ0R0AAAAAgN6sWv2+ojsAAAAAAL1Zt/p9RXcAAAAAAAgR3QEAAAAAIER0BwAAAACAENEdAAAAAIDeXLb6fUV3AAAAAAAIEd0BAAAAACBEdAcAAAAAoDfrVr+v6A4AAAAAQFeGsVatfl/RHQAAAAAAQkR3AAAAAAAIEd0BAAAAAOjJdcvfVXQHAAAAAKAnzb5EtUR3AAAAAADIEd0BAAAAAOjJquXvKroDAAAAANAT62UAAAAAAGAORHcAAAAAAHpivQwAAAAAAIRYLwMAAAAAACGiOwAAAAAAJAyj9TIAAAAAADALojsAAAAAAL24bv17iu4AAAAAAPSi6X3uJboDAAAAANCRm9a/qugOAAAAAEAvRHcAAAAAAAixXgYAAAAAAEJWrQ9SdAcAAAAAgBDRHQAAAACALgxjXbb+PUV3AAAAAAAIEd0BAAAAAOjBVQ9fUnQHAAAAAIAQ0R0AAAAAgB40v8+9RHcAAAAAADqx7uFriu4AAAAAAPRg1cOXFN0BAAAAAOiBm+4AAAAAAJAwjG66AwAAAABAwm0vUxTdAQAAAABo3U0vJyS6AwAAAADQui5Wy5ToDgAAAABAB9x0BwAAAACAEDfdAQAAAAAgxE13AAAAAABIGEbRHQAAAAAAEq56mqLoDgAAAABAy7q55V6iOwAAAAAAjRPdAQAAAAAg5LKnQYruAAAAAAC0zE13AAAAAABIGEbRHQAAAAAAEq56m6LoDgAAAABAq7q65V6iOwAAAAAADVv1djiiOwAAAAAArRLdAQAAAAAgRHQHAAAAAICA22GsdW+DFN0BAAAAAGhRd7fcS3QHAAAAAKBRojsAAAAAAIRc9jhI0R0AAAAAgBa56Q4AAAAAAAFdvkS1RHcAAAAAABrU5S33Et0BAAAAAGiQ6A4AAAAAACFdvkS1RHcAAAAAABrkpjsAAAAAAARc9/oS1RLdAQAAAABoTLe33Et0BwAAAACgMaI7AAAAAACEdPsS1RLdAQAAAABoyTC66Q4AAAAAAAlXvU9RdAcAAAAAoBVdr5Yp0R0AAAAAgIaI7gAAAAAAENL1PvcS3QEAAAAAaMT1MNa698MQ3QEAAAAAaEH3q2VKdAcAAAAAoBGiOwAAAAAAhIjuAAAAAAAQMIl97htH9z4BaNfVMNbxlM5nufj+PN/u/QB2z98nAJo0jPU/UzoZ/z4BwLNN4pZ7uekOAAAAAEADRHcAAAAAAAgR3QEAAAAAIGAy+9xLdAcAAAAA4MAmc8u9RHcAAAAAAA5MdAcAAAAAgIRhrK9TGqToDgAAAADAoVxNbfKiOwAAAAAAhzKp1TIlugMAAAAAcECTWi1TojsAAAAAAAdyN4y1mtrwRXcAAAAAAA5hcrfcS3QHAAAAAOBAJrfPvUR3AAAAAAAOxE13AAAAAAAIuB7GWk9xkKI7AAAAAAD7Nslb7iW6AwAAAABwAKI7AAAAAAAE3A1jraY6SNEdAAAAAIB9muwt9xLdAQAAAADYM9EdAAAAAAAShlF0BwAAAACAhIupT1F0BwAAAABgXyZ9y71EdwAAAAAA9kh0BwAAAACAgOthrPXUBym6AwAAAACwD+dzmLLoDgAAAADAPkx+tUyJ7gAAAAAA7MFmtczNHAYtugMAAAAAsGuzWC1TojsAAAAAAHswi9UyJboDAAAAALBjs1ktU6I7AAAAAAA7NpvVMiW6AwAAAACwY7NZLVOiOwAAAAAAOzSr1TIlugMAAAAAsEOzWi1TojsAAAAAADs0q9UyJboDAAAAALAjV3NbLVOiOwAAAAAAOzK71TIlugMAAAAAsCOzWy1TojsAAAAAADtwMYy1nuNgRXcAAAAAANJmuVqmRHcAAAAAAMLuhnGeq2VKdAcAAAAAIGy2wb1EdwAAAAAAws7mPFDRHQAAAACAlNthrNWcpym6AwAAAACQMutb7iW6AwAAAAAQNOt97iW6AwAAAAAQcjGMdTP3YYruAAAAAAAknJui6A4AAAAAwNvdDaPVMiW6AwAAAAAQ4Jb7D6I7AAAAAABvdWaC/yS6AwAAAADwFldeoPofR/c+AWjXb8tF/cP5QIS/TwA0yb9PANAlq2V+4qY7AAAAAACvtXmBquj+E9EdAAAAAIDXEtx/IboDAAAAAPBaXqD6C9EdAAAAAIDX8ALVLUR3AAAAAABewy33LUR3AAAAAABe6nYY66up3Se6AwAAAADwUm65P0B0BwAAAADgpc5NbDvRHQAAAACAl/gyjLU2se1EdwAAAAAAXsJqmUeI7gAAAAAAPNfVMNbKtB4mugMAAAAA8FxuuT9BdAcAAAAA4Dluh7G+mtTjRHcAAAAAAJ7j1JSeJroDAAAAAPCUuyq33J9DdAcAAAAA4Clnw1jrJ37P7JXoDgAAAADAM5wb0vOI7gAAAAAAPObLMNbNIz/nJ6I7AAAAAACP8QLVFxDdAQAAAAB4yIVb7i8jugMAAAAA8JCzBz7nAaI7AAAAAADbXA1jXW75nEeI7gAAAAAAbGOX+yuI7gAAAAAA/OraLffXEd0BAAAAAPiVXe6vJLoDAAAAAPCz22GscxN5HdEdAAAAAICf2eX+BqI7AAAAAAD/4pb7G4nuAAAAAAD8i1vubyS6AwAAAABQbrlniO4AAAAAAJRb7hmiOwAAAAAAbrmHiO4AAAAAALjlHiK6AwAAAADMm1vuQaI7AAAAAMC8ueUeJLoDAAAAAMyXW+5hojsAAAAAwHy55R4mugMAAAAAzNOVW+55ojsAAAAAwDy55b4DojsAAAAAwPxsbrlfOvc80R0AAAAAYH7cct8R0R0AAAAAYF4u3HLfHdEdAAAAAGBePjnv3RHdAQAAAADm48sw1o3z3h3RHQAAAABgHu7cct890R0AAAAAYB7OhrHWznq3RHcAAAAAgOm73UR357x7ojsAAAAAwPSduuW+H6I7AAAAAMC0XQ9jnTvj/RDdAQAAAACmzctT90h0BwAAAACYrothrEvnuz+iOwAAAADAdLnlvmeiOwAAAADANH0exrpxtvslugMAAAAATM9dVZ051/0T3QEAAAAApufTMNbaue6f6A4AAAAAMC1Xw1jnzvQwRHcAAAAAgGnx8tQDEt0BAAAAAKbj78NYK+d5OKI7AAAAAMA0bF6eeuosD0t0BwAAAACYBi9PbYDoDgAAAADQPy9PbYToDgAAAADQPy9PbYToDgAAAADQNy9PbYjoDgAAAADQr1svT22L6A4AAAAA0C8vT22M6A4AAAAA0KeLYayvzq4tojsAAAAAQH/uvDy1TaI7AAAAAEB/Toexbpxbe0R3AAAAAIC+XA1jnTmzNonuAAAAAAB9sVamYaI7AAAAAEA/Pg9jrZxXu0R3AAAAAIA+XA9jnTqrtonuAAAAAAB9OHFO7RPdAQAAAADaZ61MJ0R3AAAAAIC2WSvTEdEdAAAAAKBt1sp0RHQHAAAAAGiXtTKdEd0BAAAAANpkrUyHjuY+AAAAvjteLvzHPIS8N0gAIMRamQ6J7gAAbPz24xcAANAGa2U6Zb0MAAAAAEBbrJXpmOgOAAAAANCOu6r6w3n0S3QHAAAAAGjH6TDWjfPol+gOAAAAANCGi2GsM2fRN9EdAAAAAODwNmtlTpxD/0R3AAAAAIDDOxnGWjuH/onuAAAAAACH9fdhrK/OYBpEdwAAAACAw7nevDzV/KdDdAcAAAAAOIw7a2WmR3QHAAAAADiM02GsldlPi+gOAAAAALB/F8NYZ+Y+PaI7AAAAAMB+3W7Wypj5NInuAAAAAAD79Yc97tMlugMAAAAA7M/f7HGfNtEdAAAAAGA/7HGfAdEdAAAAAGD37HGfCdEdAAAAAGD37HGfCdEdAAAAAGC3/mqP+3yI7gAAAAAAu/NlGOvcfOdDdAcAAAAA2I3rqvpktvMiugMAAAAA5N1tXpxqj/v8iO4AAAAAAHkn9rjPk+gOAAAAAJD1eRjrq5nOk+gOAAAAAJBzMYx1ap7zJboDAAAAAGRsXpx6YpbzJroDAAAAALydF6fynegOAAAAAPB2XpzKd6I7AAAAAMDbeHEq/ya6AwAAAAC83hcvTuVnojsAAAAAwOtsXpz6yez4megOAAAAAPBymxenHntxKr8S3QEAAAAAXkZw50GiOwAAAADAy3waxlqZGduI7gAAAAAAz/d5GOvcvHiI6A4AAAAA8DxfhrFOzYrHiO4AAAAAAE+7HsY6MSeeIroDAAAAADzuevPi1Ed/B/wgugMAAAAAPOyuqv4Yxlo/+DvgJ6I7AAAAAMB2m+B+PIx1s/WnsIXoDgAAAACw3ckw1mrrT+ABojsAAAAAwH1/Hcb6eu9TeILoDgAAAADw3z4PY53f+xSeQXQHAAAAAPiPL8NYp+bBa4nuAAAAAAD/tAnuJ2bBW4juAAAAAABV11X1yRz+v727u23jCgIwOglSiEtwCS4hJcgdyB3IHchbAdWB1MBC7IDsgOyArMDBOpcJLciWRN0l7885gGDYfrujpw+DWd5LdAcAAAAAejcF90/DGLveH4L3E90BAAAAgJ4J7mQlugMAAAAAvdpHxJXgTk6iOwAAAADQo33acF+ZPjmJ7gAAAABAbwR3ZiO6AwAAAAA9EdyZlegOAAAAAPTkWnBnTqI7AAAAANCLz8MYC9NmTqI7AAAAANADwZ2zEN0BAAAAgNYJ7pyN6A4AAAAAtExw56xEdwAAAACgVYI7Zye6AwAAAAAtEty5CNEdAAAAAGiN4M7FiO4AAAAAQEsEdy5KdAcAAAAAWiG4c3GiOwAAAADQAsGdIojuAAAAAEDtBHeKIboDAAAAADUT3CmK6A4AAAAA1EpwpziiOwAAAABQm73gTqn+MhkAAAAAoCJTcP80jLEyNEpk0x0AAAAAqIXgTvFEdwAAAACgBoI7VRDdAQAAAIDSrQV3auGmOwAAAABQskNw35kSNbDpDgAAAACUSnCnOqI7AAAAAFCiO8GdGjkvAwAAAACU5m4Y48pUqJFNdwAAAACgJF8Fd2pm0x0AAAAAKMXnYYyFaVAz0R0AAAAAuLR9RFwNY9ybBLUT3QEAAACAS9qnD6auTIEWuOkOAAAAAFzKOiI+Cu60RHQHAAAAAC5hmTbcN16fljgvAwAAAACc290wxpVXp0U23QEAAACAc/oiuNMym+4AAAAAwDlMH0y9HsZYeG1aJroDAAAAAHPbp/vtPphK85yXAQAAAADmtI6ID4I7vRDdAQAAAIC53KUN950XphfOywAAAAAAc5g+mHrrZemN6A4AAAAA5DTdb78axrj3qvTIeRkAAAAAIJd1OicjuNMt0R0AAAAAyOEhBXcfTKVrzssAAAAAAO/1dRjjxiuC6A4AAAAAnM79dnhCdAcAAAAATjHdb/97GGPj9eB/broDAAAAAG91l+63C+7whE13AAAAAOAtPg9jLLwYPE90BwAAAABeY5vOyay8Fvya8zIAAAAAwEseIuKj4A4vs+kOAAAAAPzOl2GM29/8P3BEdAcAAAAAnuOcDJzAeRkAAAAA4CnnZOBENt0BAAAAgIN9RFwPYyy8CJxGdAcAAAAAJuuIuLLdDu8jugMAAAAA34Yxrrt/BchAdAcAAACAfu3Tx1If/Q5AHj6kCgAAAAB9mj6W+kFwh7xsugMAAABAX6bt9pthjFtzh/xEdwAAAADoxzJ9LHVj5jAP0R0AAAAA+vB1GOPGrGFeojsAAAAAtG2dtttX5gzzE90BAAAAoF222+HMRHcAAAAAaI/tdrgQ0R0AAAAA2mK7HS5IdAcAAACANthuhwKI7gAAAABQt31E3NpuhzKI7gAAAABQr2Xabt+YIZRBdAcAAACA+kzb7TfDGLdmB2UR3QEAAACgLg9pu31nblAe0R0AAAAA6rBNsf3RvKBcf5oNAAAAABTva0R8FNyhfDbdAQAAAKBcPpQKlRHdAQAAAKA804dSr4cxFmYDdXFeBgAAAADK8i0iPgjuUCeb7gAAAABQhmXabl+ZB9RLdAcAAACAy9qm2H5vDlA/0R0AAAAALmO62347/Qxj7MwA2iC6AwAAAMD53UXEzTDGxttDW0R3AAAAADifZYrtj94c2iS6AwAAAMD8tim2L7w1tE10BwAAAID57NPN9htvDH0Q3QEAAABgHt/SdruPpEJHRHcAAAAAyMtHUqFjojsAAAAA5DF9JPV6GGPlPaFfojsAAAAAvM8ybbY/ekdAdAcAAACA06zTZrvYDvxHdAcAAACAt9mmzfaFdwOeEt0BAAAA4HXEduBFojsAAAAA/J7YDrya6A4AAAAAzxPbgTcT3QEAAADgZ2I7cDLRHQAAAAD+tUyx/dF7AKcS3QEAAADondgOZCO6AwAAANCru4i4HcZY+Q0AchHdAQAAAOjJPiLu02b7xuSB3ER3AAAAAHowxfbbtNm+M3FgLqI7AAAAAC3bpq32hSkD5yC6AwAAANCih7TV7uOowFmJ7gAAAAC0wr124OJEdwAAAABqt0332hfutQOXJroDAAAAUCsnZIDiiO4AAAAA1GTaal+krXYnZIDiiO4AAAAA1OAhhfZ70wJKJroDAAAAUCpb7UB1RHcAAAAASnMXEfe22oEaie4AAAAAlGB9tNW+MxGgVqI7AAAAAJcynY+5T6F9ZQpAC0R3AAAAAM5pn0K78zFAk0R3AAAAAM7h4Si2Ox8DNEt0BwAAAGAuy3SnXWgHuiG6AwAAAJDT+ii0b7ws0BvRHQAAAID3Wh6djhHaga6J7gAAAACcwo12gGeI7gAAAAC8xj5F9kehHeDXRHcAAAAAfmV7CO3D+ONPAF4gugMAAABwbHkU2ldeBuBtRHcAAACAvm0PJ2NSaHc2BuAdRHcAAACA/jyk0G6bHSAz0R0AAACgfcujyP5o3gDzEd0BAAAA2rM+iuw+gApwRqI7AAAAQP1ssgMUQnQHAAAAqMv+ENgjYiWyA5RFdAcAAAAo2+FUzCptsm/MC6BcojsAAABAOdYprq9ssQPUSXQHAAAAuAyBHaBBojsAAADAvPaH0zARP07DTIF95c0B2iS6AwAAAOSxP9pc3xxtsO+8L0A/RHcAAACAt1lG/Ajph7i+cRoGgAPRHQAAAOBn20NMf/Jjax2AF4nuAAAAQE8OJ2Ai3ViP9Pdd2ljf+G0A4D1EdwAAAKB2h830ODr7Ekdb6mFLHYBzEd0BAACASzgO5U89dx/9p39zQx2AUv3x/ft3wwEAAAAAgAz+9IgAAAAAAJCH6A4AAAAAAJmI7gAAAAAAkInoDgAAAAAAmYjuAAAAAACQiegOAAAAAACZiO4AAAAAAJCJ6A4AAAAAAJmI7gAAAAAAkInoDgAAAAAAmYjuAAAAAACQiegOAAAAAACZiO4AAAAAAJCJ6A4AAAAAAJmI7gAAAAAAkInoDgAAAAAAmYjuAAAAAACQiegOAAAAAACZiO4AAAAAAJCJ6A4AAAAAAJmI7gAAAAAAkInoDgAAAAAAmYjuAAAAAACQiegOAAAAAACZiO4AAAAAAJCJ6A4AAAAAAJmI7gAAAAAAkInoDgAAAAAAmYjuAAAAAACQiegOAAAAAACZiO4AAAAAAJCJ6A4AAAAAAJmI7gAAAAAAkInoDgAAAAAAmYjuAAAAAACQiegOAAAAAACZiO4AAAAAAJCJ6A4AAAAAADlExD/Gsv8Po6eF/QAAAABJRU5ErkJggg==;" vertex="1" parent="1">
                    <mxGeometry x="-20" y="-162" width="73" height="73" as="geometry"/>
                </mxCell>
            </root>
        </mxGraphModel>
    </diagram>
</mxfile>